<mxfile host="app.diagrams.net" agent="Mozilla/5.0 (Windows NT 10.0; Win64; x64) AppleWebKit/537.36 (KHTML, like Gecko) Chrome/131.0.0.0 Safari/537.36 Edg/131.0.0.0" version="25.0.3">
  <diagram name="Page-1" id="2mYwKofm3q8vys9K6gAG">
    <mxGraphModel dx="1042" dy="533" grid="1" gridSize="10" guides="1" tooltips="1" connect="1" arrows="1" fold="1" page="1" pageScale="1" pageWidth="850" pageHeight="1100" math="0" shadow="0">
      <root>
        <mxCell id="0" />
        <mxCell id="1" parent="0" />
        <mxCell id="J6dyTxTK-rc1xvHEFfSa-1" value="Building an LLM" style="rounded=1;whiteSpace=wrap;html=1;" vertex="1" parent="1">
          <mxGeometry x="40" y="280" width="240" height="40" as="geometry" />
        </mxCell>
        <mxCell id="J6dyTxTK-rc1xvHEFfSa-2" value="" style="endArrow=classic;html=1;rounded=0;exitX=0.025;exitY=0.693;exitDx=0;exitDy=0;exitPerimeter=0;" edge="1" parent="1" source="J6dyTxTK-rc1xvHEFfSa-15">
          <mxGeometry width="50" height="50" relative="1" as="geometry">
            <mxPoint x="270" y="300" as="sourcePoint" />
            <mxPoint x="390" y="299.5" as="targetPoint" />
          </mxGeometry>
        </mxCell>
        <mxCell id="J6dyTxTK-rc1xvHEFfSa-3" value="Foundation model" style="rounded=1;whiteSpace=wrap;html=1;" vertex="1" parent="1">
          <mxGeometry x="400" y="280" width="240" height="40" as="geometry" />
        </mxCell>
        <mxCell id="J6dyTxTK-rc1xvHEFfSa-5" value="" style="endArrow=classic;html=1;rounded=0;exitX=1;exitY=0.25;exitDx=0;exitDy=0;" edge="1" parent="1" source="J6dyTxTK-rc1xvHEFfSa-3">
          <mxGeometry width="50" height="50" relative="1" as="geometry">
            <mxPoint x="400" y="300" as="sourcePoint" />
            <mxPoint x="750" y="220" as="targetPoint" />
            <Array as="points">
              <mxPoint x="680" y="290" />
              <mxPoint x="680" y="220" />
            </Array>
          </mxGeometry>
        </mxCell>
        <mxCell id="J6dyTxTK-rc1xvHEFfSa-6" value="" style="endArrow=classic;html=1;rounded=0;exitX=1;exitY=0.75;exitDx=0;exitDy=0;" edge="1" parent="1" source="J6dyTxTK-rc1xvHEFfSa-3">
          <mxGeometry width="50" height="50" relative="1" as="geometry">
            <mxPoint x="400" y="300" as="sourcePoint" />
            <mxPoint x="750" y="380" as="targetPoint" />
            <Array as="points">
              <mxPoint x="680" y="310" />
              <mxPoint x="680" y="380" />
            </Array>
          </mxGeometry>
        </mxCell>
        <mxCell id="J6dyTxTK-rc1xvHEFfSa-7" value="Personal assistant" style="rounded=1;whiteSpace=wrap;html=1;" vertex="1" parent="1">
          <mxGeometry x="760" y="360" width="200" height="40" as="geometry" />
        </mxCell>
        <mxCell id="J6dyTxTK-rc1xvHEFfSa-8" value="Classifier" style="rounded=1;whiteSpace=wrap;html=1;" vertex="1" parent="1">
          <mxGeometry x="760" y="200" width="200" height="40" as="geometry" />
        </mxCell>
        <mxCell id="J6dyTxTK-rc1xvHEFfSa-9" value="Data preparation and sampling&amp;nbsp;" style="rounded=1;whiteSpace=wrap;html=1;" vertex="1" parent="1">
          <mxGeometry x="40" y="120" width="70" height="80" as="geometry" />
        </mxCell>
        <mxCell id="J6dyTxTK-rc1xvHEFfSa-10" value="" style="endArrow=classic;html=1;rounded=0;exitX=0.5;exitY=1;exitDx=0;exitDy=0;" edge="1" parent="1" source="J6dyTxTK-rc1xvHEFfSa-9">
          <mxGeometry width="50" height="50" relative="1" as="geometry">
            <mxPoint x="400" y="300" as="sourcePoint" />
            <mxPoint x="75" y="270" as="targetPoint" />
          </mxGeometry>
        </mxCell>
        <mxCell id="J6dyTxTK-rc1xvHEFfSa-11" value="Attention&lt;div&gt;Mechanism&lt;/div&gt;" style="rounded=1;whiteSpace=wrap;html=1;" vertex="1" parent="1">
          <mxGeometry x="120" y="120" width="70" height="80" as="geometry" />
        </mxCell>
        <mxCell id="J6dyTxTK-rc1xvHEFfSa-12" value="" style="endArrow=classic;html=1;rounded=0;exitX=0.5;exitY=1;exitDx=0;exitDy=0;" edge="1" parent="1" source="J6dyTxTK-rc1xvHEFfSa-11">
          <mxGeometry width="50" height="50" relative="1" as="geometry">
            <mxPoint x="400" y="300" as="sourcePoint" />
            <mxPoint x="155" y="270" as="targetPoint" />
          </mxGeometry>
        </mxCell>
        <mxCell id="J6dyTxTK-rc1xvHEFfSa-13" value="LLM architecture" style="rounded=1;whiteSpace=wrap;html=1;" vertex="1" parent="1">
          <mxGeometry x="200" y="120" width="70" height="80" as="geometry" />
        </mxCell>
        <mxCell id="J6dyTxTK-rc1xvHEFfSa-14" value="" style="endArrow=classic;html=1;rounded=0;exitX=0.5;exitY=1;exitDx=0;exitDy=0;" edge="1" parent="1" source="J6dyTxTK-rc1xvHEFfSa-13">
          <mxGeometry width="50" height="50" relative="1" as="geometry">
            <mxPoint x="400" y="300" as="sourcePoint" />
            <mxPoint x="235" y="270" as="targetPoint" />
          </mxGeometry>
        </mxCell>
        <mxCell id="J6dyTxTK-rc1xvHEFfSa-15" value="pre-training" style="text;html=1;align=center;verticalAlign=middle;resizable=0;points=[];autosize=1;strokeColor=none;fillColor=none;" vertex="1" parent="1">
          <mxGeometry x="280" y="278" width="80" height="30" as="geometry" />
        </mxCell>
        <mxCell id="J6dyTxTK-rc1xvHEFfSa-16" value="Training loop" style="rounded=1;whiteSpace=wrap;html=1;" vertex="1" parent="1">
          <mxGeometry x="400" y="120" width="70" height="80" as="geometry" />
        </mxCell>
        <mxCell id="J6dyTxTK-rc1xvHEFfSa-17" value="" style="endArrow=classic;html=1;rounded=0;exitX=0.5;exitY=1;exitDx=0;exitDy=0;" edge="1" parent="1" source="J6dyTxTK-rc1xvHEFfSa-16">
          <mxGeometry width="50" height="50" relative="1" as="geometry">
            <mxPoint x="400" y="300" as="sourcePoint" />
            <mxPoint x="435" y="270" as="targetPoint" />
          </mxGeometry>
        </mxCell>
        <mxCell id="J6dyTxTK-rc1xvHEFfSa-18" value="Model evaluation" style="rounded=1;whiteSpace=wrap;html=1;" vertex="1" parent="1">
          <mxGeometry x="490" y="120" width="70" height="80" as="geometry" />
        </mxCell>
        <mxCell id="J6dyTxTK-rc1xvHEFfSa-19" value="" style="endArrow=classic;html=1;rounded=0;" edge="1" parent="1">
          <mxGeometry width="50" height="50" relative="1" as="geometry">
            <mxPoint x="520" y="200" as="sourcePoint" />
            <mxPoint x="520" y="270" as="targetPoint" />
          </mxGeometry>
        </mxCell>
        <mxCell id="J6dyTxTK-rc1xvHEFfSa-21" value="Load pretrained weights&lt;div&gt;&lt;br&gt;&lt;/div&gt;" style="rounded=1;whiteSpace=wrap;html=1;" vertex="1" parent="1">
          <mxGeometry x="570" y="120" width="70" height="80" as="geometry" />
        </mxCell>
        <mxCell id="J6dyTxTK-rc1xvHEFfSa-22" value="" style="endArrow=classic;html=1;rounded=0;exitX=0.5;exitY=1;exitDx=0;exitDy=0;" edge="1" parent="1" source="J6dyTxTK-rc1xvHEFfSa-21">
          <mxGeometry width="50" height="50" relative="1" as="geometry">
            <mxPoint x="605" y="210" as="sourcePoint" />
            <mxPoint x="605" y="270" as="targetPoint" />
          </mxGeometry>
        </mxCell>
        <mxCell id="J6dyTxTK-rc1xvHEFfSa-23" value="Finetuning" style="text;html=1;align=center;verticalAlign=middle;whiteSpace=wrap;rounded=0;" vertex="1" parent="1">
          <mxGeometry x="680" y="190" width="60" height="30" as="geometry" />
        </mxCell>
        <mxCell id="J6dyTxTK-rc1xvHEFfSa-24" value="Finetuning" style="text;html=1;align=center;verticalAlign=middle;whiteSpace=wrap;rounded=0;" vertex="1" parent="1">
          <mxGeometry x="680" y="380" width="60" height="30" as="geometry" />
        </mxCell>
      </root>
    </mxGraphModel>
  </diagram>
</mxfile>
